<svg width="50" height="50" viewBox="0 0 50 50" fill="none" xmlns="http://www.w3.org/2000/svg">
<path d="M34.6475 27.3562C34.5298 27.4771 34.0853 27.9937 33.6713 28.4187C31.2439 31.0917 24.9117 35.4667 21.5975 36.8021C21.0941 37.0167 19.8216 37.4708 19.1417 37.5C18.4902 37.5 17.8692 37.35 17.2765 37.0458C16.5378 36.6208 15.9452 35.9521 15.6204 35.1625C15.4114 34.6146 15.0867 32.975 15.0867 32.9458C14.7619 31.1521 14.5833 28.2375 14.5833 25.0167C14.5833 21.9479 14.7619 19.1521 15.0278 17.3312C15.0582 17.3021 15.383 15.2646 15.7381 14.5667C16.3896 13.2917 17.6622 12.5 19.024 12.5H19.1417C20.0286 12.5312 21.8938 13.3229 21.8938 13.3521C25.0294 14.6896 31.2155 18.85 33.7017 21.6146C33.7017 21.6146 34.4019 22.325 34.7063 22.7687C35.1812 23.4062 35.4167 24.1958 35.4167 24.9854C35.4167 25.8667 35.1508 26.6875 34.6475 27.3562Z" fill="white"/>
</svg>
